<?xml version="1.0" encoding="UTF-8"?>
<svg xmlns="http://www.w3.org/2000/svg" xmlns:xlink="http://www.w3.org/1999/xlink" viewBox="0 0 3214.47 2643.86">
  <defs>
    <style>
      .cls-1 {
        fill: url(#_Безымянный_градиент_153);
      }

      .cls-1, .cls-2, .cls-3, .cls-4, .cls-5, .cls-6 {
        stroke-miterlimit: 10;
      }

      .cls-1, .cls-2, .cls-3, .cls-4, .cls-6 {
        stroke-linecap: round;
      }

      .cls-1, .cls-2, .cls-3, .cls-5, .cls-6 {
        stroke: #1d1d1b;
      }

      .cls-1, .cls-2, .cls-5, .cls-6 {
        stroke-width: 57px;
      }

      .cls-7 {
        fill: #d0a1ae;
      }

      .cls-2, .cls-3, .cls-4, .cls-5 {
        fill: none;
      }

      .cls-3 {
        stroke-width: 36px;
      }

      .cls-4 {
        stroke: #45244a;
        stroke-width: 46px;
      }

      .cls-6 {
        fill: url(#_Безымянный_градиент_153-2);
      }

      .cls-8 {
        fill: #45244a;
      }
    </style>
    <linearGradient id="_Безымянный_градиент_153" data-name="Безымянный градиент 153" x1="1547.15" y1="478.95" x2="1557.85" y2="2181.61" gradientUnits="userSpaceOnUse">
      <stop offset="0" stop-color="#bad3f0"/>
      <stop offset=".04" stop-color="#bed4f0"/>
      <stop offset=".16" stop-color="#cad8f0"/>
      <stop offset=".29" stop-color="#cedaf1"/>
      <stop offset=".3" stop-color="#5c6fb3"/>
    </linearGradient>
    <linearGradient id="_Безымянный_градиент_153-2" data-name="Безымянный градиент 153" x1="1061.28" y1="2480.88" x2="1061.36" y2="2493.38" xlink:href="#_Безымянный_градиент_153"/>
  </defs>
  <g id="_Слой_5" data-name="Слой 5">
    <rect class="cls-7" x="570.61" width="2643.86" height="2643.86"/>
  </g>
  <g id="_Слой_2" data-name="Слой 2">
    <path class="cls-1" d="m1046.55,2495.47c11.25,0,22.51,0,33.76,0,337.49,0,674.98,0,1012.47,0,57.82-45.79,150.94-131.45,221.54-266.84,93.32-178.97,95.75-345.62,91.78-423.8-10.96-78.37-42.57-224.41-148.75-370.43-156.45-215.15-372.08-289-446.24-310.79-3.16-210.33-6.33-420.66-9.49-630.99,77.95-19.06,127.83-82.85,123.43-144.41-3.87-54.03-48.23-87.79-56.97-94.18h-319.65,15.98-319.65c-8.74,6.39-53.1,40.14-56.97,94.18-4.4,61.56,45.48,125.34,123.43,144.41-3.16,210.33-6.33,420.66-9.49,630.99-74.16,21.79-289.79,95.64-446.24,310.79-42.29,58.16-133.21,185.19-148.75,370.43-19.56,233.21,88.89,406.07,132.13,472.4,77.24,118.47,189.53,204.62,189.53,204.62,7.53,5.81,13.87,10.49,18.16,13.62Z"/>
    <path class="cls-4" d="m1685.19,2365.78c-28.7-18.78-73.19-46.17-131.93-75.58-93.19-46.65-116.87-45.59-160.79-75.58-14.19-9.69-107.68-75.4-103.07-165.15,3.75-73.16,70.69-123.5,109.94-153.02,118.04-88.78,188.85-57.66,346.32-153.02,107.48-65.08,145.53-123.3,154.58-137.76,47.45-75.8,47.05-145.37,46.63-161.28-2.22-85.29-44.32-146.36-63.79-171.21"/>
    <path class="cls-4" d="m1237.33,1273.17c-20.72,35.06-54.28,104.4-49.47,194.07,1.63,30.46,6.25,98.91,56.61,168.2,10.99,15.12,42.41,55.4,130.29,107.99,160.91,96.27,233.74,68.35,346.32,153.02,39.25,29.52,106.19,79.86,109.94,153.02,4.6,89.75-88.88,155.46-103.07,165.15-43.92,29.98-67.6,28.93-160.79,75.58-58.74,29.4-103.23,56.8-131.93,75.58"/>
    <path class="cls-8" d="m1419.66,1675.31h295.34c11.77,0,23.04-10.35,22.5-22.5s-9.89-22.5-22.5-22.5h-295.34c-11.77,0-23.04,10.35-22.5,22.5s9.89,22.5,22.5,22.5h0Z"/>
    <path class="cls-8" d="m1302.76,1545.98c17.94.02,35.89.04,53.83.06,43.08.05,86.16.1,129.24.15,51.92.06,103.85.12,155.77.18,44.9.05,89.79.1,134.69.15,21.89.03,43.83.52,65.72.08.31,0,.62,0,.92,0,11.77.01,23.04-10.36,22.5-22.5s-9.89-22.49-22.5-22.5c-17.94-.02-35.89-.04-53.83-.06-43.08-.05-86.16-.1-129.24-.15-51.92-.06-103.85-.12-155.77-.18-44.9-.05-89.79-.1-134.69-.15-21.89-.03-43.83-.52-65.72-.08-.31,0-.62,0-.92,0-11.77-.01-23.04,10.36-22.5,22.5s9.89,22.49,22.5,22.5h0Z"/>
    <path class="cls-8" d="m1315.39,1410.64h450.68c20.77,0,41.61.47,62.38,0,.29,0,.58,0,.87,0,11.77,0,23.04-10.35,22.5-22.5-.55-12.19-9.89-22.5-22.5-22.5h-51.42c-40.8,0-81.61,0-122.41,0-49.49,0-98.99,0-148.48,0h-128.37c-20.77,0-41.61-.47-62.38,0-.29,0-.58,0-.87,0-11.77,0-23.04,10.35-22.5,22.5s9.89,22.5,22.5,22.5h0Z"/>
    <path class="cls-8" d="m1495.76,1977.21h131.8c11.77,0,23.04-10.35,22.5-22.5s-9.89-22.5-22.5-22.5h-131.8c-11.77,0-23.04,10.35-22.5,22.5s9.89,22.5,22.5,22.5h0Z"/>
    <path class="cls-8" d="m1402.17,2080.32h312.18c11.77,0,23.04-10.35,22.5-22.5s-9.89-22.5-22.5-22.5h-312.18c-11.77,0-23.04,10.35-22.5,22.5s9.89,22.5,22.5,22.5h0Z"/>
    <path class="cls-8" d="m1495.76,2183.43h128.89c11.77,0,23.04-10.35,22.5-22.5s-9.89-22.5-22.5-22.5h-128.89c-11.77,0-23.04,10.35-22.5,22.5s9.89,22.5,22.5,22.5h0Z"/>
    <line class="cls-5" x1="1304.05" y1="969.26" x2="1808.79" y2="969.26"/>
  </g>
  <g id="_Слой_3" data-name="Слой 3">
    <path class="cls-2" d="m2317.47,151.68c101.48-.59,202.96-1.18,304.43-1.76,53.09,89.92,106.18,179.84,159.27,269.76h297.97"/>
    <path class="cls-2" d="m2769.94,439.03c-10.86,20.04-21.72,40.08-32.58,60.13l-118.4,218.48c-97.76-.39-195.51-.78-293.27-1.18"/>
    <path class="cls-2" d="m2804.07,1326.65c-91.14,53.62-182.27,107.24-273.4,160.86,1.81,108.15,3.62,216.3,5.44,324.46,88.16,58.38,176.31,116.76,264.47,175.14,86.26-54.47,172.52-108.93,258.78-163.4.72-112.05,1.44-224.1,2.16-336.16-85.81-53.63-171.63-107.27-257.45-160.9Z"/>
    <line class="cls-3" x1="2365.66" y1="615.38" x2="2562.54" y2="615.38"/>
    <line class="cls-3" x1="2365.66" y1="246.3" x2="2570.18" y2="246.3"/>
    <line class="cls-3" x1="2645.68" y1="1751.45" x2="2792.07" y2="1848.79"/>
    <path class="cls-2" d="m2614.85,742.33c58.38,86.98,116.76,173.96,175.14,260.94l12.52,313.1"/>
    <line class="cls-3" x1="2777.6" y1="1456.98" x2="2645.29" y2="1543.42"/>
    <line class="cls-3" x1="2959.79" y1="1567.87" x2="2962.95" y2="1734.38"/>
    <path class="cls-6" d="m1098.25,2495.47h-55.91c-5.98-5.34-11.96-10.68-17.93-16.03"/>
  </g>
</svg>